<svg aria-hidden="true" style="position: absolute; width: 0; height: 0; overflow: hidden;"
    version="1.1" xmlns="http://www.w3.org/2000/svg" xmlns:xlink="http://www.w3.org/1999/xlink">
    <defs>

        <symbol id="icon-facebook-footer" viewBox="0 0 26 28">
            <path
                d="M14.984 0.187v4.125h-2.453c-1.922 0-2.281 0.922-2.281 2.25v2.953h4.578l-0.609 4.625h-3.969v11.859h-4.781v-11.859h-3.984v-4.625h3.984v-3.406c0-3.953 2.422-6.109 5.953-6.109 1.687 0 3.141 0.125 3.563 0.187z"></path>
        </symbol>

        <symbol id="icon-telegram-footer" viewBox="0 0 32 32">
            <path
                d="M32 2.667l-32 15 10.227 3.156 15.773-12.323-11.998 13.488 0.010 0.003-0.012-0.003v7.345l5.735-5.576 7.265 2.242 5-23.333z"></path>
        </symbol>

        <symbol id="icon-git-hub-footer" width="20" height="20" viewBox="0 0 20 20" fill="none"
            xmlns="http://www.w3.org/2000/svg">
            <path
                d="M10 0C4.50745 0 0 4.50745 0 10C0 14.687 3.28888 18.9447 7.65625 20V16.6916C7.22351 16.7863 6.82526 16.7891 6.38474 16.6592C5.79376 16.4848 5.31357 16.0912 4.95712 15.4909C4.72992 15.1076 4.32724 14.6919 3.90717 14.7224L3.80417 13.5551C4.71252 13.4773 5.49835 14.1086 5.96481 14.8923C6.17203 15.2408 6.41052 15.4451 6.71661 15.5354C7.01248 15.6226 7.33017 15.5807 7.70035 15.45C7.79327 14.7089 8.13278 14.4315 8.38928 14.0408V14.0402C5.78461 13.6517 4.74655 12.2699 4.33456 11.1792C3.7886 9.73099 4.08157 7.92175 5.047 6.77841C5.06577 6.75613 5.09964 6.69785 5.08652 6.6571C4.64386 5.31998 5.18326 4.21387 5.20309 4.09653C5.71396 4.24759 5.79697 3.94455 7.42218 4.93195L7.70309 5.10071C7.82059 5.17075 7.78366 5.13077 7.90115 5.12192C8.57971 4.93759 9.29504 4.83582 9.99985 4.82666C10.71 4.83582 11.4207 4.93759 12.1274 5.12939L12.2183 5.13855C12.2104 5.13733 12.243 5.13275 12.2978 5.1001C14.328 3.87039 14.2551 4.27231 14.7995 4.09531C14.8192 4.2128 15.3514 5.33691 14.9135 6.6571C14.8544 6.83899 16.6736 8.50479 15.6653 11.1787C15.2533 12.2699 14.2154 13.6517 11.6107 14.0402V14.0408C11.9446 14.5497 12.3457 14.8204 12.3436 15.8702V20C16.7111 18.9447 19.9998 14.687 19.9998 10C20 4.50745 15.4926 0 10 0V0Z"
                fill="white" />
        </symbol>

        <symbol id="icon-github-footer" viewBox="0 0 32 32">
            <path d="M16 0.395c-8.836 0-16 7.163-16 16 0 7.069 4.585 13.067 10.942 15.182 0.8 0.148 1.094-0.347 1.094-0.77 0-0.381-0.015-1.642-0.022-2.979-4.452 0.968-5.391-1.888-5.391-1.888-0.728-1.849-1.776-2.341-1.776-2.341-1.452-0.993 0.11-0.973 0.11-0.973 1.606 0.113 2.452 1.649 2.452 1.649 1.427 2.446 3.743 1.739 4.656 1.33 0.143-1.034 0.558-1.74 1.016-2.14-3.554-0.404-7.29-1.777-7.29-7.907 0-1.747 0.625-3.174 1.649-4.295-0.166-0.403-0.714-2.030 0.155-4.234 0 0 1.344-0.43 4.401 1.64 1.276-0.355 2.645-0.532 4.005-0.539 1.359 0.006 2.729 0.184 4.008 0.539 3.054-2.070 4.395-1.64 4.395-1.64 0.871 2.204 0.323 3.831 0.157 4.234 1.026 1.12 1.647 2.548 1.647 4.295 0 6.145-3.743 7.498-7.306 7.895 0.574 0.497 1.085 1.47 1.085 2.963 0 2.141-0.019 3.864-0.019 4.391 0 0.426 0.288 0.925 1.099 0.768 6.354-2.118 10.933-8.113 10.933-15.18 0-8.837-7.164-16-16-16z"></path>
        </symbol>

        <symbol id="home" width="12" height="11" viewBox="0 0 12 11" fill="none"
            xmlns="http://www.w3.org/2000/svg">
            <path
                d="M11.8497 5.28727C12.0672 5.06411 12.0462 4.72207 11.8028 4.5235L6.43981 0.146237C6.19638 -0.0523315 5.80611 -0.0481718 5.56781 0.155614L0.186634 4.75688C-0.0516656 4.96066 -0.0633615 5.30227 0.160739 5.51955L0.295652 5.65062C0.519479 5.86791 0.88127 5.89381 1.10322 5.70831L1.50538 5.37236V10.2907C1.50538 10.5924 1.7675 10.8367 2.09076 10.8367H4.18836C4.51162 10.8367 4.77374 10.5924 4.77374 10.2907V6.84984H7.44925V10.2907C7.4446 10.5922 7.6759 10.8365 7.99916 10.8365H10.2221C10.5453 10.8365 10.8075 10.5922 10.8075 10.2905V5.44161C10.8075 5.44161 10.9186 5.5324 11.0556 5.64474C11.1924 5.75687 11.4797 5.66697 11.6972 5.44358L11.8497 5.28727Z"
                fill="#D31342" />
        </symbol>

    </defs>
    <defs>
        <symbol id="logo">
            <svg width="50" height="50" viewBox="0 0 50 50" fill="none"
                xmlns="http://www.w3.org/2000/svg">
                <ellipse cx="25" cy="25.5" rx="24" ry="24.5" fill="white" />
                <path
                    d="M18.5144 0.877464C6.94289 4.38148 0 13.4919 0 25.0051C0 34.4159 4.82984 42.6253 12.779 46.73C16.9044 48.8324 17.5082 47.3307 13.6845 44.4273C10.9678 42.2248 10.4647 41.2237 10.4647 37.5194C10.4647 34.9164 9.86092 32.814 8.95533 32.0131C7.14414 30.5114 6.94289 26.6069 8.75408 25.2053C9.45844 24.6046 10.1628 22.6023 10.2634 20.8003C10.7665 14.1927 17.9107 7.9856 25.0548 7.9856C32.1989 7.9856 39.3431 14.1927 39.8462 20.8003C39.9468 22.6023 40.6511 24.6046 41.3555 25.2053C43.1667 26.6069 42.9654 30.5114 41.1543 32.0131C40.2487 32.814 39.6449 34.9164 39.6449 37.5194C39.6449 41.2237 39.1418 42.2248 36.425 44.4273C32.1989 47.7311 33.4064 48.9325 38.1356 46.0292C44.7766 41.9245 49.7071 33.0143 49.7071 25.1052C49.7071 9.28709 33.2051 -3.52758 18.5144 0.877464Z"
                    fill="#D41443" />
                <path
                    d="M19.8225 12.4908C18.0113 13.2917 16.502 14.2928 16.502 14.8935C16.502 15.9948 21.9355 17.9971 25.0548 17.9971C28.1741 17.9971 33.6076 15.9948 33.6076 14.8935C33.6076 13.6921 27.3691 10.989 24.8535 10.989C23.8473 11.0892 21.533 11.6898 19.8225 12.4908Z"
                    fill="#D41443" />
                <path
                    d="M14.0869 18.6978C13.785 19.0983 13.4832 20.3998 13.4832 21.7013C13.4832 24.0039 13.5838 24.0039 25.0546 24.0039C36.5255 24.0039 36.6261 24.0039 36.6261 21.7013C36.6261 18.2974 35.7205 17.8969 32.5006 19.4987C28.8783 21.4009 21.231 21.4009 17.6086 19.4987C15.9987 18.6978 14.4894 18.3975 14.0869 18.6978Z"
                    fill="#D41443" />
                <path
                    d="M11.1688 27.608C9.5589 29.31 12.2757 30.0108 20.1242 30.0108H28.5764V33.5148C28.5764 35.417 29.0795 37.0188 29.5826 37.0188C30.1863 37.0188 30.5888 35.5171 30.5888 33.6149C30.5888 30.3111 30.7901 30.1109 34.6137 29.8105C36.8274 29.6103 38.6386 29.0096 38.6386 28.5091C38.6386 27.4078 12.2757 26.5068 11.1688 27.608Z"
                    fill="#D41443" />
                <path
                    d="M13.4832 36.4181C13.4832 41.9244 15.395 43.0256 25.0546 43.0256C34.7143 43.0256 36.6261 41.9244 36.6261 36.4181C36.6261 34.0153 36.123 33.0142 35.1168 33.0142C34.2112 33.0142 33.6075 33.9152 33.6075 35.4169C33.6075 41.0233 25.9602 41.5239 24.8534 36.0176C24.3503 33.1143 24.0484 33.0142 18.9167 33.0142H13.4832V36.4181Z"
                    fill="#D41443" />
                <path
                    d="M19.722 47.7312C20.3257 50.9349 30.5892 50.6345 30.5892 47.531C30.5892 46.4297 29.2811 46.0292 24.9543 46.0292C20.2251 46.0292 19.4201 46.3296 19.722 47.7312Z"
                    fill="#D41443" />
            </svg>
        </symbol>
    </defs>


    <def>
        <symbol id="close">
            <path
                d="M15 4.10786L13.8921 3L9.5 7.39214L5.10786 3L4 4.10786L8.39214 8.5L4 12.8921L5.10786 14L9.5 9.60786L13.8921 14L15 12.8921L10.6079 8.5L15 4.10786Z"
            />
        </symbol>
    </def>
    <def>
        <symbol id="emailblack">
            <g clip-path="url(#clip0_1_2679)">
                <path
                    d="M15 3H3C2.175 3 1.5075 3.675 1.5075 4.5L1.5 13.5C1.5 14.325 2.175 15 3 15H15C15.825 15 16.5 14.325 16.5 13.5V4.5C16.5 3.675 15.825 3 15 3ZM14.7 6.1875L9.3975 9.5025C9.1575 9.6525 8.8425 9.6525 8.6025 9.5025L3.3 6.1875C3.1125 6.0675 3 5.865 3 5.6475C3 5.145 3.5475 4.845 3.975 5.1075L9 8.25L14.025 5.1075C14.4525 4.845 15 5.145 15 5.6475C15 5.865 14.8875 6.0675 14.7 6.1875Z"
                />
            </g>
            <defs>
                <clipPath id="clip0_1_2679">
                    <rect width="18" height="18" />
                </clipPath>
            </defs>
        </symbol>
    </def>

    <def>
        <symbol id="phoneblack">
            <g clip-path="url(#clip0_1_2673)">
                <path
                    d="M13.996 11.1226L12.1579 10.9127C11.7164 10.862 11.2822 11.014 10.971 11.3252L9.63945 12.6568C7.59144 11.6147 5.91251 9.94296 4.87041 7.8877L6.20922 6.54888C6.5204 6.2377 6.67237 5.80349 6.62171 5.36205L6.41185 3.53836C6.325 2.80745 5.70988 2.25745 4.97173 2.25745H3.71976C2.902 2.25745 2.22175 2.93771 2.2724 3.75547C2.65595 9.93572 7.59868 14.8712 13.7717 15.2548C14.5894 15.3054 15.2697 14.6252 15.2697 13.8074V12.5555C15.2769 11.8245 14.7269 11.2094 13.996 11.1226Z"
                />
            </g>
            <defs>
                <clipPath id="clip0_1_2673">
                    <rect width="18" height="18" />
                </clipPath>
            </defs>
        </symbol>
    </def>
    <def>
        <symbol id="silhouetteblack">
            <g clip-path="url(#clip0_1_2667)">
                <path
                    d="M9 9C10.6575 9 12 7.6575 12 6C12 4.3425 10.6575 3 9 3C7.3425 3 6 4.3425 6 6C6 7.6575 7.3425 9 9 9ZM9 10.5C6.9975 10.5 3 11.505 3 13.5V14.25C3 14.6625 3.3375 15 3.75 15H14.25C14.6625 15 15 14.6625 15 14.25V13.5C15 11.505 11.0025 10.5 9 10.5Z"
                />
            </g>
            <defs>
                <clipPath id="clip0_1_2667">
                    <rect width="18" height="18" />
                </clipPath>
            </defs>
        </symbol>
    </def>
    
    <def>
        <symbol id="lineRigth">
            <svg width="6" height="10" viewBox="0 0 6 10" fill="none"
                xmlns="http://www.w3.org/2000/svg">
                <path d="M1 1L5 5L1 9" stroke="#D41443" stroke-width="2" stroke-linecap="round"
                    stroke-linejoin="round" />
            </svg>
        </symbol>
    </def>
    <defs>

        <symbol id="icon-arrow-right-4" viewBox="0 0 31 32">
            <path d="M0 0h30.567v32h-30.567v-32z"></path>
        </symbol>

        <symbol id="icon-points" viewBox="0 0 133 32">
            <path fill="#fff" style="fill: var(--color1, #fff)"
                d="M81.512 16c0 8.837-6.843 16-15.284 16s-15.284-7.163-15.284-16c0-8.837 6.843-16 15.284-16s15.284 7.163 15.284 16z"></path>
            <path fill="#fff" style="fill: var(--color1, #fff)"
                d="M30.567 16c0 8.837-6.843 16-15.284 16s-15.284-7.163-15.284-16c0-8.837 6.843-16 15.284-16s15.284 7.163 15.284 16z"></path>
            <path fill="#fff" style="fill: var(--color1, #fff)"
                d="M132.458 16c0 8.837-6.843 16-15.284 16s-15.284-7.163-15.284-16c0-8.837 6.843-16 15.284-16s15.284 7.163 15.284 16z"></path>
        </symbol>

        <symbol id="icon-bottom-circle" viewBox="0 0 32 32">
            <path d="M0 0h32v32h-32v-32z"></path>
        </symbol>

    </defs>
</svg>
